<?xml version="1.0" encoding="UTF-8"?>
<!DOCTYPE svg PUBLIC "-//W3C//DTD SVG 1.1//EN" "http://www.w3.org/Graphics/SVG/1.1/DTD/svg11.dtd">
<svg xmlns="http://www.w3.org/2000/svg" version="1.1" width="208px" height="67px" style="shape-rendering:geometricPrecision; text-rendering:geometricPrecision; image-rendering:optimizeQuality; fill-rule:evenodd; clip-rule:evenodd" xmlns:xlink="http://www.w3.org/1999/xlink">
<g><path style="opacity:0.004" fill="#000000" d="M 24.5,12.5 C 27.9758,11.3567 31.6425,11.1901 35.5,12C 31.8484,12.4986 28.1817,12.6653 24.5,12.5 Z"/></g>
<g><path style="opacity:0.007" fill="#000000" d="M 108.5,12.5 C 111.976,11.3567 115.642,11.1901 119.5,12C 115.848,12.4986 112.182,12.6653 108.5,12.5 Z"/></g>
<g><path style="opacity:0.004" fill="#000000" d="M 24.5,12.5 C 24.5,12.8333 24.5,13.1667 24.5,13.5C 23.8299,13.0187 23.8299,12.6853 24.5,12.5 Z"/></g>
<g><path style="opacity:0.017" fill="#000000" d="M 120.5,13.5 C 121.638,16.3035 121.805,19.3035 121,22.5C 120.502,19.5184 120.335,16.5184 120.5,13.5 Z"/></g>
<g><path style="opacity:0.008" fill="#090d0f" d="M 23.5,15.5 C 23.6716,16.4916 23.3382,17.1583 22.5,17.5C 21.8333,17.5 21.5,17.8333 21.5,18.5C 21.1667,18.5 20.8333,18.5 20.5,18.5C 20.5627,15.8049 21.5627,14.8049 23.5,15.5 Z"/></g>
<g><path style="opacity:0.007" fill="#050505" d="M 36.5,15.5 C 36.5,15.1667 36.5,14.8333 36.5,14.5C 38.7409,15.2998 39.7409,16.9664 39.5,19.5C 39.1667,19.5 38.8333,19.5 38.5,19.5C 38.6716,18.5084 38.3382,17.8417 37.5,17.5C 36.8333,17.5 36.5,17.1667 36.5,16.5C 37.8333,16.1667 37.8333,15.8333 36.5,15.5 Z"/></g>
<g><path style="opacity:0.008" fill="#000000" d="M 106.5,14.5 C 107.634,16.9664 107.801,19.633 107,22.5C 106.503,19.854 106.336,17.1873 106.5,14.5 Z"/></g>
<g><path style="opacity:0.996" fill="#17619f" d="M 108.5,13.5 C 112.167,13.5 115.833,13.5 119.5,13.5C 119.905,17.0479 119.405,20.3812 118,23.5C 114.943,22.5495 111.777,22.2161 108.5,22.5C 108.5,19.5 108.5,16.5 108.5,13.5 Z"/></g>
<g><path style="opacity:0.998" fill="#216eb1" d="M 24.5,13.5 C 28.6002,13.2367 32.6002,13.5701 36.5,14.5C 36.5,14.8333 36.5,15.1667 36.5,15.5C 36.5,15.8333 36.5,16.1667 36.5,16.5C 36.5,17.1667 36.8333,17.5 37.5,17.5C 37.3284,18.4916 37.6618,19.1583 38.5,19.5C 38.5,19.8333 38.5,20.1667 38.5,20.5C 38.3284,21.4916 38.6618,22.1583 39.5,22.5C 39.5,22.8333 39.5,23.1667 39.5,23.5C 39.5,24.1667 39.8333,24.5 40.5,24.5C 40.5,25.1667 40.8333,25.5 41.5,25.5C 41.5,25.8333 41.5,26.1667 41.5,26.5C 41.5,26.8333 41.5,27.1667 41.5,27.5C 41.8333,28.1667 42.1667,28.8333 42.5,29.5C 42.5,30.1667 42.8333,30.5 43.5,30.5C 43.5,30.8333 43.5,31.1667 43.5,31.5C 43.3284,32.4916 43.6618,33.1583 44.5,33.5C 44.5,33.8333 44.5,34.1667 44.5,34.5C 44.5,35.1667 44.8333,35.5 45.5,35.5C 45.5,35.8333 45.5,36.1667 45.5,36.5C 45.5,37.1667 45.8333,37.5 46.5,37.5C 46.5,37.8333 46.5,38.1667 46.5,38.5C 46.3284,39.4916 46.6618,40.1583 47.5,40.5C 47.5,40.8333 47.5,41.1667 47.5,41.5C 47.5,41.8333 47.5,42.1667 47.5,42.5C 33.0758,49.7123 18.4091,56.379 3.5,62.5C 3.5,61.8333 3.5,61.1667 3.5,60.5C 3.83333,59.8333 4.16667,59.1667 4.5,58.5C 5.33825,58.1583 5.67158,57.4916 5.5,56.5C 5.83333,55.1667 6.16667,53.8333 6.5,52.5C 7.16667,52.5 7.5,52.1667 7.5,51.5C 7.83333,50.8333 8.16667,50.1667 8.5,49.5C 8.5,49.1667 8.5,48.8333 8.5,48.5C 9.16667,48.5 9.5,48.1667 9.5,47.5C 9.5,47.1667 9.5,46.8333 9.5,46.5C 9.5,46.1667 9.5,45.8333 9.5,45.5C 10.1667,45.5 10.5,45.1667 10.5,44.5C 11.1667,44.5 11.5,44.1667 11.5,43.5C 11.5,42.8333 11.5,42.1667 11.5,41.5C 12.3382,41.1583 12.6716,40.4916 12.5,39.5C 13.1667,39.5 13.5,39.1667 13.5,38.5C 13.5,37.8333 13.5,37.1667 13.5,36.5C 14.1667,36.5 14.5,36.1667 14.5,35.5C 14.5,35.1667 14.5,34.8333 14.5,34.5C 15.1667,34.5 15.5,34.1667 15.5,33.5C 15.8333,32.8333 16.1667,32.1667 16.5,31.5C 17.3382,31.1583 17.6716,30.4916 17.5,29.5C 17.5,28.8333 17.5,28.1667 17.5,27.5C 18.3382,27.1583 18.6716,26.4916 18.5,25.5C 19.1667,25.5 19.5,25.1667 19.5,24.5C 19.5,24.1667 19.5,23.8333 19.5,23.5C 20.1667,23.5 20.5,23.1667 20.5,22.5C 20.5,22.1667 20.5,21.8333 20.5,21.5C 21.1667,21.5 21.5,21.1667 21.5,20.5C 21.5,19.8333 21.5,19.1667 21.5,18.5C 22.1667,18.5 22.5,18.1667 22.5,17.5C 23.3382,17.1583 23.6716,16.4916 23.5,15.5C 23.8333,14.8333 24.1667,14.1667 24.5,13.5 Z M 30.5,32.5 C 30.4021,34.5529 31.0687,36.2196 32.5,37.5C 32.4431,38.609 32.1098,39.609 31.5,40.5C 30.1667,40.8333 30.1667,41.1667 31.5,41.5C 31.1583,42.3382 30.4916,42.6716 29.5,42.5C 28.8333,41.1667 28.1667,41.1667 27.5,42.5C 26.7611,42.631 26.0944,42.4643 25.5,42C 26.464,40.2745 27.1307,38.4412 27.5,36.5C 28.404,35.791 28.7373,34.791 28.5,33.5C 29.1667,33.1667 29.8333,32.8333 30.5,32.5 Z"/></g>
<g><path style="opacity:0.007" fill="#0d0d0d" d="M 20.5,18.5 C 20.3284,19.4916 20.6618,20.1583 21.5,20.5C 21.5,21.1667 21.1667,21.5 20.5,21.5C 19.1667,21.8333 19.1667,22.1667 20.5,22.5C 20.5,23.1667 20.1667,23.5 19.5,23.5C 19.1667,23.5 18.8333,23.5 18.5,23.5C 18.4021,21.4471 19.0687,19.7804 20.5,18.5 Z"/></g>
<g><path style="opacity:0.007" fill="#0e0f11" d="M 39.5,19.5 C 41.9569,22.7512 43.6236,26.4179 44.5,30.5C 44.1667,30.5 43.8333,30.5 43.5,30.5C 42.8333,30.5 42.5,30.1667 42.5,29.5C 42.1667,28.8333 41.8333,28.1667 41.5,27.5C 42.8333,27.1667 42.8333,26.8333 41.5,26.5C 41.5,26.1667 41.5,25.8333 41.5,25.5C 40.8333,25.5 40.5,25.1667 40.5,24.5C 39.8333,24.5 39.5,24.1667 39.5,23.5C 40.8333,23.1667 40.8333,22.8333 39.5,22.5C 38.6618,22.1583 38.3284,21.4916 38.5,20.5C 39.1667,20.5 39.5,20.1667 39.5,19.5 Z"/></g>
<g><path style="opacity:0.007" fill="#000000" d="M 18.5,23.5 C 18.5,24.1667 18.8333,24.5 19.5,24.5C 19.5,25.1667 19.1667,25.5 18.5,25.5C 17.6618,25.8417 17.3284,26.5084 17.5,27.5C 17.1667,27.5 16.8333,27.5 16.5,27.5C 16.2291,25.6203 16.8958,24.287 18.5,23.5 Z"/></g>
<g><path style="opacity:0.004" fill="#000000" d="M 67.5,23.5 C 68.8333,24.1667 68.8333,24.1667 67.5,23.5 Z"/></g>
<g><path style="opacity:0.004" fill="#000000" d="M 92.5,24.5 C 92.8966,23.475 93.5632,23.3083 94.5,24C 93.9056,24.4643 93.2389,24.631 92.5,24.5 Z"/></g>
<g><path style="opacity:0.009" fill="#000000" d="M 145.5,24.5 C 146.946,23.3871 148.613,23.2204 150.5,24C 148.866,24.4935 147.199,24.6602 145.5,24.5 Z"/></g>
<g><path style="opacity:0.004" fill="#000000" d="M 177.5,23.5 C 178.833,24.1667 178.833,24.1667 177.5,23.5 Z"/></g>
<g><path style="opacity:0.004" fill="#000000" d="M 187.5,24.5 C 187.897,23.475 188.563,23.3083 189.5,24C 188.906,24.4643 188.239,24.631 187.5,24.5 Z"/></g>
<g><path style="opacity:0.011" fill="#020203" d="M 56.5,59.5 C 56.6716,58.5084 56.3382,57.8417 55.5,57.5C 54.8333,57.5 54.5,57.1667 54.5,56.5C 55.8333,56.1667 55.8333,55.8333 54.5,55.5C 53.8333,55.5 53.5,55.1667 53.5,54.5C 54.3382,54.1583 54.6716,53.4916 54.5,52.5C 55.2216,52.9175 55.7216,53.5842 56,54.5C 56.3333,44.8333 56.6667,35.1667 57,25.5C 57.8259,37.0076 57.6593,48.3409 56.5,59.5 Z"/></g>
<g><path style="opacity:0.047" fill="#444a4e" d="M 102.5,25.5 C 103.495,37.989 103.829,50.6557 103.5,63.5C 99.6286,63.815 95.9619,63.4816 92.5,62.5C 92.8333,62.5 93.1667,62.5 93.5,62.5C 96.5,62.5 99.5,62.5 102.5,62.5C 102.5,50.1667 102.5,37.8333 102.5,25.5 Z"/></g>
<g><path style="opacity:0.005" fill="#000000" d="M 104.5,25.5 C 105.66,37.9933 105.827,50.6599 105,63.5C 104.5,50.8377 104.333,38.1711 104.5,25.5 Z"/></g>
<g><path style="opacity:0.008" fill="#000000" d="M 106.5,25.5 C 107.66,37.9933 107.827,50.6599 107,63.5C 106.5,50.8377 106.333,38.1711 106.5,25.5 Z"/></g>
<g><path style="opacity:0.019" fill="#000000" d="M 120.5,25.5 C 121.66,37.9933 121.827,50.6599 121,63.5C 120.5,50.8377 120.333,38.1711 120.5,25.5 Z"/></g>
<g><path style="opacity:0.008" fill="#000000" d="M 122.5,25.5 C 123.66,37.9933 123.827,50.6599 123,63.5C 122.5,50.8377 122.333,38.1711 122.5,25.5 Z"/></g>
<g><path style="opacity:0.008" fill="#080808" d="M 176.5,26.5 C 176.5,26.8333 176.5,27.1667 176.5,27.5C 175.167,27.8333 175.167,28.1667 176.5,28.5C 176.5,29.1667 176.167,29.5 175.5,29.5C 174.167,29.8333 174.167,30.1667 175.5,30.5C 175.167,31.1667 174.833,31.8333 174.5,32.5C 173.833,32.5 173.5,32.8333 173.5,33.5C 173.167,33.5 172.833,33.5 172.5,33.5C 173.03,31.0763 173.864,28.743 175,26.5C 175.69,25.2617 176.19,25.2617 176.5,26.5 Z"/></g>
<g><path style="opacity:0.005" fill="#0f0f0f" d="M 188.5,25.5 C 189.5,25.5 190.5,25.5 191.5,25.5C 191.5,26.5 191.5,27.5 191.5,28.5C 191.167,28.5 190.833,28.5 190.5,28.5C 190.5,27.8333 190.167,27.5 189.5,27.5C 189.167,26.8333 188.833,26.1667 188.5,25.5 Z"/></g>
<g><path style="opacity:0.998" fill="#1c71b8" d="M 68.5,26.5 C 68.5,27.1667 68.8333,27.5 69.5,27.5C 69.5,28.1667 69.8333,28.5 70.5,28.5C 70.5,29.1667 70.8333,29.5 71.5,29.5C 71.5,29.8333 71.5,30.1667 71.5,30.5C 71.5,30.8333 71.5,31.1667 71.5,31.5C 71.5,32.1667 71.8333,32.5 72.5,32.5C 72.5,33.1667 72.8333,33.5 73.5,33.5C 73.5,33.8333 73.5,34.1667 73.5,34.5C 73.5,35.1667 73.8333,35.5 74.5,35.5C 74.5,36.1667 74.8333,36.5 75.5,36.5C 75.5,36.8333 75.5,37.1667 75.5,37.5C 75.5,38.1667 75.8333,38.5 76.5,38.5C 76.5,38.8333 76.5,39.1667 76.5,39.5C 76.5,40.1667 76.8333,40.5 77.5,40.5C 77.5,41.1667 77.8333,41.5 78.5,41.5C 78.5,41.8333 78.5,42.1667 78.5,42.5C 78.5,43.1667 78.8333,43.5 79.5,43.5C 79.5,44.1667 79.8333,44.5 80.5,44.5C 80.8333,45.8333 81.1667,45.8333 81.5,44.5C 82.1667,44.5 82.5,44.1667 82.5,43.5C 82.5,43.1667 82.5,42.8333 82.5,42.5C 83.1667,42.5 83.5,42.1667 83.5,41.5C 84.1667,41.5 84.5,41.1667 84.5,40.5C 84.5,40.1667 84.5,39.8333 84.5,39.5C 85.1667,39.5 85.5,39.1667 85.5,38.5C 85.5,38.1667 85.5,37.8333 85.5,37.5C 86.1667,37.5 86.5,37.1667 86.5,36.5C 87.1667,36.5 87.5,36.1667 87.5,35.5C 87.5,35.1667 87.5,34.8333 87.5,34.5C 88.1667,34.5 88.5,34.1667 88.5,33.5C 89.1667,33.5 89.5,33.1667 89.5,32.5C 89.5,32.1667 89.5,31.8333 89.5,31.5C 89.5,31.1667 89.5,30.8333 89.5,30.5C 90.9063,30.0269 91.573,29.0269 91.5,27.5C 92.1667,27.5 92.5,27.1667 92.5,26.5C 93.1667,26.5 93.5,26.1667 93.5,25.5C 96.5,25.5 99.5,25.5 102.5,25.5C 102.5,37.8333 102.5,50.1667 102.5,62.5C 99.5,62.5 96.5,62.5 93.5,62.5C 93.8297,56.1318 93.4963,49.7985 92.5,43.5C 91.7025,43.9569 91.3691,44.6236 91.5,45.5C 91.5,45.8333 91.5,46.1667 91.5,46.5C 90.8333,46.5 90.5,46.8333 90.5,47.5C 90.5,47.8333 90.5,48.1667 90.5,48.5C 89.8333,48.5 89.5,48.8333 89.5,49.5C 88.8333,49.5 88.5,49.8333 88.5,50.5C 88.5,50.8333 88.5,51.1667 88.5,51.5C 87.6618,51.8417 87.3284,52.5084 87.5,53.5C 86.8333,53.5 86.5,53.8333 86.5,54.5C 85.8333,54.5 85.5,54.8333 85.5,55.5C 85.5,55.8333 85.5,56.1667 85.5,56.5C 84.8333,56.5 84.5,56.8333 84.5,57.5C 83.8333,57.5 83.5,57.8333 83.5,58.5C 83.5,58.8333 83.5,59.1667 83.5,59.5C 81.8333,59.5 80.1667,59.5 78.5,59.5C 78.5,58.8333 78.1667,58.5 77.5,58.5C 77.5,57.8333 77.1667,57.5 76.5,57.5C 76.5,57.1667 76.5,56.8333 76.5,56.5C 76.5,55.8333 76.1667,55.5 75.5,55.5C 75.5,54.8333 75.1667,54.5 74.5,54.5C 74.5,54.1667 74.5,53.8333 74.5,53.5C 74.5,52.8333 74.1667,52.5 73.5,52.5C 73.5,52.1667 73.5,51.8333 73.5,51.5C 73.5,50.8333 73.1667,50.5 72.5,50.5C 72.5,49.8333 72.1667,49.5 71.5,49.5C 71.5,49.1667 71.5,48.8333 71.5,48.5C 71.5,47.8333 71.1667,47.5 70.5,47.5C 70.5,47.1667 70.5,46.8333 70.5,46.5C 70.2172,45.7109 69.7172,45.0442 69,44.5C 68.5005,50.4908 68.3338,56.4908 68.5,62.5C 65.1667,62.5 61.8333,62.5 58.5,62.5C 58.5,50.1667 58.5,37.8333 58.5,25.5C 62.0419,25.1872 65.3752,25.5206 68.5,26.5 Z"/></g>
<g><path style="opacity:0.007" fill="#070707" d="M 93.5,25.5 C 93.5,26.1667 93.1667,26.5 92.5,26.5C 91.8333,26.5 91.5,26.8333 91.5,27.5C 90.9569,27.44 90.6236,27.1067 90.5,26.5C 91.325,25.6143 92.325,25.281 93.5,25.5 Z"/></g>
<g><path style="opacity:0.009" fill="#060a0a" d="M 71.5,28.5 C 71.1667,28.5 70.8333,28.5 70.5,28.5C 69.8333,28.5 69.5,28.1667 69.5,27.5C 68.8333,27.5 68.5,27.1667 68.5,26.5C 70.3678,25.3264 71.3678,25.9931 71.5,28.5 Z"/></g>
<g><path style="opacity:0.997" fill="#1c72ba" d="M 118.5,25.5 C 118.5,37.8333 118.5,50.1667 118.5,62.5C 115.167,62.5 111.833,62.5 108.5,62.5C 108.5,50.1667 108.5,37.8333 108.5,25.5C 111.833,25.5 115.167,25.5 118.5,25.5 Z"/></g>
<g><path style="opacity:0.573" fill="#0a395f" d="M 118.5,25.5 C 119.495,37.989 119.829,50.6557 119.5,63.5C 115.629,63.815 111.962,63.4816 108.5,62.5C 111.833,62.5 115.167,62.5 118.5,62.5C 118.5,50.1667 118.5,37.8333 118.5,25.5 Z"/></g>
<g><path style="opacity:0.938" fill="#297ec0" d="M 125.5,25.5 C 133.84,25.3336 142.173,25.5003 150.5,26C 154.72,26.9346 158.053,29.1013 160.5,32.5C 160.5,32.8333 160.5,33.1667 160.5,33.5C 156.938,32.1007 153.771,30.1007 151,27.5C 150.228,27.6448 149.561,27.9781 149,28.5C 141.778,26.5558 134.278,25.8891 126.5,26.5C 126.5,38.1667 126.5,49.8333 126.5,61.5C 134.019,61.175 141.352,61.5084 148.5,62.5C 148.167,62.5 147.833,62.5 147.5,62.5C 140.167,62.5 132.833,62.5 125.5,62.5C 125.5,50.1667 125.5,37.8333 125.5,25.5 Z"/></g>
<g><path style="opacity:0.998" fill="#116cb5" d="M 160.5,33.5 C 160.833,33.5 161.167,33.5 161.5,33.5C 161.5,34.1667 161.833,34.5 162.5,34.5C 162.5,34.8333 162.5,35.1667 162.5,35.5C 162.328,36.4916 162.662,37.1583 163.5,37.5C 163.5,37.8333 163.5,38.1667 163.5,38.5C 163.5,42.1667 163.5,45.8333 163.5,49.5C 163.5,50.1667 163.5,50.8333 163.5,51.5C 162.833,51.5 162.5,51.8333 162.5,52.5C 162.5,52.8333 162.5,53.1667 162.5,53.5C 161.5,53.8333 160.833,54.5 160.5,55.5C 160.5,55.8333 160.5,56.1667 160.5,56.5C 159.833,56.5 159.5,56.8333 159.5,57.5C 158.833,57.5 158.5,57.8333 158.5,58.5C 157.833,58.5 157.5,58.8333 157.5,59.5C 156.833,59.5 156.5,59.8333 156.5,60.5C 155.508,60.3284 154.842,60.6618 154.5,61.5C 152.5,61.8333 150.5,62.1667 148.5,62.5C 141.352,61.5084 134.019,61.175 126.5,61.5C 126.5,49.8333 126.5,38.1667 126.5,26.5C 134.278,25.8891 141.778,26.5558 149,28.5C 149.561,27.9781 150.228,27.6448 151,27.5C 153.771,30.1007 156.938,32.1007 160.5,33.5 Z M 150.5,49.5 C 148.895,50.0059 148.561,50.6726 149.5,51.5C 149.158,52.3382 148.492,52.6716 147.5,52.5C 146.167,51.1667 144.833,51.1667 143.5,52.5C 141.833,52.5 140.167,52.5 138.5,52.5C 138.5,47.1667 138.5,41.8333 138.5,36.5C 148.726,35.0596 152.726,39.3929 150.5,49.5 Z"/></g>
<g><path style="opacity:0.998" fill="#1b6eb3" d="M 188.5,25.5 C 188.833,26.1667 189.167,26.8333 189.5,27.5C 190.167,27.5 190.5,27.8333 190.5,28.5C 190.328,29.4916 190.662,30.1583 191.5,30.5C 191.5,30.8333 191.5,31.1667 191.5,31.5C 191.5,32.1667 191.833,32.5 192.5,32.5C 192.5,32.8333 192.5,33.1667 192.5,33.5C 192.5,33.8333 192.5,34.1667 192.5,34.5C 192.5,35.1667 192.833,35.5 193.5,35.5C 193.5,35.8333 193.5,36.1667 193.5,36.5C 193.5,37.1667 193.833,37.5 194.5,37.5C 195.167,39.5 195.833,41.5 196.5,43.5C 196.5,44.1667 196.833,44.5 197.5,44.5C 197.5,45.1667 197.833,45.5 198.5,45.5C 198.5,46.1667 198.5,46.8333 198.5,47.5C 198.833,48.1667 199.167,48.8333 199.5,49.5C 199.5,50.1667 199.833,50.5 200.5,50.5C 200.5,50.8333 200.5,51.1667 200.5,51.5C 200.5,52.1667 200.833,52.5 201.5,52.5C 201.5,53.1667 201.5,53.8333 201.5,54.5C 201.5,55.1667 201.833,55.5 202.5,55.5C 202.5,56.1667 202.833,56.5 203.5,56.5C 203.5,56.8333 203.5,57.1667 203.5,57.5C 203.833,58.8333 204.167,58.8333 204.5,57.5C 205.338,57.8417 205.672,58.5084 205.5,59.5C 204.662,59.8417 204.328,60.5084 204.5,61.5C 201.375,62.4794 198.042,62.8128 194.5,62.5C 193.662,62.1583 193.328,61.4916 193.5,60.5C 193.167,59.8333 192.833,59.1667 192.5,58.5C 192.5,58.1667 192.5,57.8333 192.5,57.5C 192.5,56.8333 192.167,56.5 191.5,56.5C 185.833,55.1667 180.167,55.1667 174.5,56.5C 173.662,56.8417 173.328,57.5084 173.5,58.5C 173.328,59.4916 173.662,60.1583 174.5,60.5C 174.179,62.0481 173.179,62.7148 171.5,62.5C 167.958,62.8128 164.625,62.4794 161.5,61.5C 162.338,61.1583 162.672,60.4916 162.5,59.5C 162.5,59.1667 162.5,58.8333 162.5,58.5C 163.167,58.5 163.5,58.1667 163.5,57.5C 163.5,56.8333 163.5,56.1667 163.5,55.5C 164.167,55.5 164.5,55.1667 164.5,54.5C 165.167,54.5 165.5,54.1667 165.5,53.5C 165.5,52.8333 165.5,52.1667 165.5,51.5C 166.167,51.5 166.5,51.1667 166.5,50.5C 166.5,50.1667 166.5,49.8333 166.5,49.5C 167.167,49.5 167.5,49.1667 167.5,48.5C 167.5,48.1667 167.5,47.8333 167.5,47.5C 168.167,47.5 168.5,47.1667 168.5,46.5C 168.5,45.8333 168.5,45.1667 168.5,44.5C 169.167,44.5 169.5,44.1667 169.5,43.5C 170.338,43.1583 170.672,42.4916 170.5,41.5C 170.5,41.1667 170.5,40.8333 170.5,40.5C 171.167,40.5 171.5,40.1667 171.5,39.5C 171.5,39.1667 171.5,38.8333 171.5,38.5C 172.167,38.5 172.5,38.1667 172.5,37.5C 172.5,37.1667 172.5,36.8333 172.5,36.5C 173.167,36.5 173.5,36.1667 173.5,35.5C 173.5,34.8333 173.5,34.1667 173.5,33.5C 174.167,33.5 174.5,33.1667 174.5,32.5C 174.833,31.8333 175.167,31.1667 175.5,30.5C 175.5,30.1667 175.5,29.8333 175.5,29.5C 176.167,29.5 176.5,29.1667 176.5,28.5C 176.5,28.1667 176.5,27.8333 176.5,27.5C 176.5,27.1667 176.5,26.8333 176.5,26.5C 180.4,25.5701 184.4,25.2367 188.5,25.5 Z M 182.5,41.5 C 183.167,42.1667 183.833,42.8333 184.5,43.5C 183.5,46.1667 182.5,46.1667 181.5,43.5C 182.338,43.1583 182.672,42.4916 182.5,41.5 Z"/></g>
<g><path style="opacity:0.129" fill="#11222a" d="M 125.5,25.5 C 125.5,37.8333 125.5,50.1667 125.5,62.5C 132.833,62.5 140.167,62.5 147.5,62.5C 147.5,62.8333 147.5,63.1667 147.5,63.5C 139.833,63.5 132.167,63.5 124.5,63.5C 124.171,50.6557 124.505,37.989 125.5,25.5 Z"/></g>
<g><path style="opacity:0.009" fill="#0a0c0c" d="M 28.5,29.5 C 28.8417,28.6618 29.5084,28.3284 30.5,28.5C 30.8333,29.1667 31.1667,29.8333 31.5,30.5C 30.6618,30.8417 30.3284,31.5084 30.5,32.5C 29.8333,32.8333 29.1667,33.1667 28.5,33.5C 28.5,32.8333 28.5,32.1667 28.5,31.5C 29.8333,30.8333 29.8333,30.1667 28.5,29.5 Z"/></g>
<g><path style="opacity:0.008" fill="#090a0c" d="M 71.5,28.5 C 73.2503,29.6594 74.2503,31.326 74.5,33.5C 74.1667,33.5 73.8333,33.5 73.5,33.5C 72.8333,33.5 72.5,33.1667 72.5,32.5C 71.8333,32.5 71.5,32.1667 71.5,31.5C 72.8333,31.1667 72.8333,30.8333 71.5,30.5C 71.5,30.1667 71.5,29.8333 71.5,29.5C 71.5,29.1667 71.5,28.8333 71.5,28.5 Z"/></g>
<g><path style="opacity:0.007" fill="#030303" d="M 191.5,28.5 C 193.117,30.1209 194.284,32.1209 195,34.5C 195.74,35.7494 195.573,36.7494 194.5,37.5C 193.833,37.5 193.5,37.1667 193.5,36.5C 194.833,36.1667 194.833,35.8333 193.5,35.5C 192.833,35.5 192.5,35.1667 192.5,34.5C 193.833,34.1667 193.833,33.8333 192.5,33.5C 192.5,33.1667 192.5,32.8333 192.5,32.5C 191.833,32.5 191.5,32.1667 191.5,31.5C 191.5,31.1667 191.5,30.8333 191.5,30.5C 191.5,29.8333 191.5,29.1667 191.5,28.5 Z"/></g>
<g><path style="opacity:0.007" fill="#07090b" d="M 89.5,30.5 C 89.5,30.8333 89.5,31.1667 89.5,31.5C 88.1667,31.8333 88.1667,32.1667 89.5,32.5C 89.5,33.1667 89.1667,33.5 88.5,33.5C 87.8333,33.5 87.5,33.8333 87.5,34.5C 87.1667,34.5 86.8333,34.5 86.5,34.5C 86.7086,33.0783 87.2086,31.745 88,30.5C 88.69,29.2617 89.19,29.2617 89.5,30.5 Z"/></g>
<g><path style="opacity:0.009" fill="#000000" d="M 15.5,30.5 C 15.5,31.1667 15.8333,31.5 16.5,31.5C 16.1667,32.1667 15.8333,32.8333 15.5,33.5C 14.8333,33.5 14.5,33.8333 14.5,34.5C 14.5,34.8333 14.5,35.1667 14.5,35.5C 13.8333,35.5 13.5,35.8333 13.5,36.5C 13.1667,36.5 12.8333,36.5 12.5,36.5C 12.7549,34.0326 13.7549,32.0326 15.5,30.5 Z"/></g>
<g><path style="opacity:0.345" fill="#313d47" d="M 16.5,27.5 C 16.3284,28.4916 16.6618,29.1583 17.5,29.5C 17.6716,30.4916 17.3382,31.1583 16.5,31.5C 15.8333,31.5 15.5,31.1667 15.5,30.5C 15.2627,29.209 15.596,28.209 16.5,27.5 Z"/></g>
<g><path style="opacity:0.007" fill="#0e0f12" d="M 44.5,30.5 C 46.6246,33.0878 47.9579,36.0878 48.5,39.5C 47.8333,39.5 47.5,39.8333 47.5,40.5C 46.6618,40.1583 46.3284,39.4916 46.5,38.5C 47.8333,38.1667 47.8333,37.8333 46.5,37.5C 45.8333,37.5 45.5,37.1667 45.5,36.5C 46.8333,36.1667 46.8333,35.8333 45.5,35.5C 44.8333,35.5 44.5,35.1667 44.5,34.5C 45.8333,34.1667 45.8333,33.8333 44.5,33.5C 43.6618,33.1583 43.3284,32.4916 43.5,31.5C 44.1667,31.5 44.5,31.1667 44.5,30.5 Z"/></g>
<g><path style="opacity:0.008" fill="#0f0f0f" d="M 163.5,34.5 C 163.167,34.5 162.833,34.5 162.5,34.5C 161.833,34.5 161.5,34.1667 161.5,33.5C 161.167,33.5 160.833,33.5 160.5,33.5C 160.5,33.1667 160.5,32.8333 160.5,32.5C 162.368,31.3264 163.368,31.9931 163.5,34.5 Z"/></g>
<g><path style="opacity:0.007" fill="#000000" d="M 30.5,32.5 C 30.8333,32.5 31.1667,32.5 31.5,32.5C 31.5,33.1667 31.8333,33.5 32.5,33.5C 32.5,34.8333 32.5,36.1667 32.5,37.5C 31.0687,36.2196 30.4021,34.5529 30.5,32.5 Z"/></g>
<g><path style="opacity:0.008" fill="#0d1013" d="M 27.5,32.5 C 27.5,33.1667 27.8333,33.5 28.5,33.5C 28.7373,34.791 28.404,35.791 27.5,36.5C 27.6716,35.5084 27.3382,34.8417 26.5,34.5C 26.3284,33.5084 26.6618,32.8417 27.5,32.5 Z"/></g>
<g><path style="opacity:0.008" fill="#030207" d="M 74.5,33.5 C 76.2503,34.6594 77.2503,36.326 77.5,38.5C 77.1667,38.5 76.8333,38.5 76.5,38.5C 75.8333,38.5 75.5,38.1667 75.5,37.5C 75.5,37.1667 75.5,36.8333 75.5,36.5C 74.8333,36.5 74.5,36.1667 74.5,35.5C 73.8333,35.5 73.5,35.1667 73.5,34.5C 74.1667,34.5 74.5,34.1667 74.5,33.5 Z"/></g>
<g><path style="opacity:0.007" fill="#0c0d12" d="M 172.5,33.5 C 172.328,34.4916 172.662,35.1583 173.5,35.5C 173.5,36.1667 173.167,36.5 172.5,36.5C 171.167,36.8333 171.167,37.1667 172.5,37.5C 172.5,38.1667 172.167,38.5 171.5,38.5C 171.167,38.5 170.833,38.5 170.5,38.5C 170.402,36.4471 171.069,34.7804 172.5,33.5 Z"/></g>
<g><path style="opacity:0.008" fill="#040404" d="M 86.5,34.5 C 86.5,35.1667 86.8333,35.5 87.5,35.5C 87.5,36.1667 87.1667,36.5 86.5,36.5C 85.8333,36.5 85.5,36.8333 85.5,37.5C 85.5,37.8333 85.5,38.1667 85.5,38.5C 84.8333,38.5 84.5,38.8333 84.5,39.5C 84.1667,39.5 83.8333,39.5 83.5,39.5C 83.7497,37.326 84.7497,35.6594 86.5,34.5 Z"/></g>
<g><path style="opacity:0.009" fill="#010101" d="M 136.5,36.5 C 136.5,36.1667 136.5,35.8333 136.5,35.5C 140.167,35.5 143.833,35.5 147.5,35.5C 147.842,36.3382 148.508,36.6716 149.5,36.5C 149.5,37.1667 149.833,37.5 150.5,37.5C 151.167,38.1667 151.833,38.8333 152.5,39.5C 151.167,39.8333 151.167,40.1667 152.5,40.5C 152.5,40.8333 152.5,41.1667 152.5,41.5C 151.167,43.8333 151.167,46.1667 152.5,48.5C 152.158,49.3382 151.492,49.6716 150.5,49.5C 152.726,39.3929 148.726,35.0596 138.5,36.5C 138.5,41.8333 138.5,47.1667 138.5,52.5C 140.167,52.5 141.833,52.5 143.5,52.5C 143.5,52.8333 143.5,53.1667 143.5,53.5C 141.167,53.5 138.833,53.5 136.5,53.5C 136.5,53.1667 136.5,52.8333 136.5,52.5C 137.833,47.1667 137.833,41.8333 136.5,36.5 Z"/></g>
<g><path style="opacity:0.007" fill="#0a0a0a" d="M 12.5,36.5 C 12.3284,37.4916 12.6618,38.1583 13.5,38.5C 13.5,39.1667 13.1667,39.5 12.5,39.5C 11.6618,39.8417 11.3284,40.5084 11.5,41.5C 11.1667,41.5 10.8333,41.5 10.5,41.5C 10.4021,39.4471 11.0687,37.7804 12.5,36.5 Z"/></g>
<g><path style="opacity:0.009" fill="#0a0b0c" d="M 26.5,36.5 C 26.8333,36.5 27.1667,36.5 27.5,36.5C 27.1307,38.4412 26.464,40.2745 25.5,42C 26.0944,42.4643 26.7611,42.631 27.5,42.5C 27.5,42.8333 27.5,43.1667 27.5,43.5C 26.5084,43.3284 25.8417,43.6618 25.5,44.5C 24.8333,44.5 24.1667,44.5 23.5,44.5C 23.5,44.1667 23.5,43.8333 23.5,43.5C 24.8333,42.8333 24.8333,42.1667 23.5,41.5C 23.3284,40.5084 23.6618,39.8417 24.5,39.5C 25.4202,40.0674 25.7535,39.4008 25.5,37.5C 26.1667,37.5 26.5,37.1667 26.5,36.5 Z"/></g>
<g><path style="opacity:0.157" fill="#2e3c48" d="M 142.5,34.5 C 140.265,34.2053 138.265,34.5386 136.5,35.5C 136.5,35.8333 136.5,36.1667 136.5,36.5C 136.5,41.8333 136.5,47.1667 136.5,52.5C 136.5,52.8333 136.5,53.1667 136.5,53.5C 136.5,53.8333 136.5,54.1667 136.5,54.5C 135.509,47.6866 135.175,40.6866 135.5,33.5C 138.059,33.1984 140.393,33.5318 142.5,34.5 Z"/></g>
<g><path style="opacity:0.157" fill="#1a2126" d="M 163.5,34.5 C 164.338,34.8417 164.672,35.5084 164.5,36.5C 163.833,36.5 163.5,36.8333 163.5,37.5C 162.662,37.1583 162.328,36.4916 162.5,35.5C 163.167,35.5 163.5,35.1667 163.5,34.5 Z"/></g>
<g><path style="opacity:0.01" fill="#05090a" d="M 33.5,36.5 C 34.3382,36.8417 34.6716,37.5084 34.5,38.5C 33.1667,38.8333 33.1667,39.1667 34.5,39.5C 34.5,39.8333 34.5,40.1667 34.5,40.5C 33.5,40.5 32.5,40.5 31.5,40.5C 32.1098,39.609 32.4431,38.609 32.5,37.5C 33.1667,37.5 33.5,37.1667 33.5,36.5 Z"/></g>
<g><path style="opacity:0.009" fill="#000000" d="M 182.5,37.5 C 182.833,37.5 183.167,37.5 183.5,37.5C 183.263,38.791 183.596,39.791 184.5,40.5C 184.5,41.1667 184.833,41.5 185.5,41.5C 185.5,41.8333 185.5,42.1667 185.5,42.5C 184.833,42.5 184.5,42.8333 184.5,43.5C 183.833,42.8333 183.167,42.1667 182.5,41.5C 182.672,40.5084 182.338,39.8417 181.5,39.5C 181.833,38.8333 182.167,38.1667 182.5,37.5 Z"/></g>
<g><path style="opacity:0.009" fill="#0b0e0e" d="M 77.5,38.5 C 78.9063,38.9731 79.573,39.9731 79.5,41.5C 79.1667,41.5 78.8333,41.5 78.5,41.5C 77.8333,41.5 77.5,41.1667 77.5,40.5C 76.8333,40.5 76.5,40.1667 76.5,39.5C 77.1667,39.5 77.5,39.1667 77.5,38.5 Z"/></g>
<g><path style="opacity:0.008" fill="#0d0e10" d="M 170.5,38.5 C 170.5,39.1667 170.833,39.5 171.5,39.5C 171.5,40.1667 171.167,40.5 170.5,40.5C 169.167,40.8333 169.167,41.1667 170.5,41.5C 170.672,42.4916 170.338,43.1583 169.5,43.5C 168.833,43.5 168.5,43.8333 168.5,44.5C 168.167,44.5 167.833,44.5 167.5,44.5C 167.755,42.0326 168.755,40.0326 170.5,38.5 Z"/></g>
<g><path style="opacity:0.007" fill="#000000" d="M 48.5,39.5 C 49.782,40.7082 49.782,42.0416 48.5,43.5C 47.8933,43.3764 47.56,43.0431 47.5,42.5C 47.5,42.1667 47.5,41.8333 47.5,41.5C 48.3382,41.1583 48.6716,40.4916 48.5,39.5 Z"/></g>
<g><path style="opacity:0.01" fill="#0e0e0e" d="M 83.5,39.5 C 83.5,40.1667 83.8333,40.5 84.5,40.5C 84.5,41.1667 84.1667,41.5 83.5,41.5C 82.8333,41.5 82.5,41.8333 82.5,42.5C 82.1667,42.5 81.8333,42.5 81.5,42.5C 81.427,40.9731 82.0937,39.9731 83.5,39.5 Z"/></g>
<g><path style="opacity:0.014" fill="#060707" d="M 165.5,39.5 C 166.167,41.1667 166.833,42.8333 167.5,44.5C 167.328,45.4916 167.662,46.1583 168.5,46.5C 168.5,47.1667 168.167,47.5 167.5,47.5C 166.167,47.8333 166.167,48.1667 167.5,48.5C 167.5,49.1667 167.167,49.5 166.5,49.5C 165.167,49.8333 165.167,50.1667 166.5,50.5C 166.5,51.1667 166.167,51.5 165.5,51.5C 165.167,51.5 164.833,51.5 164.5,51.5C 164.5,50.8333 164.5,50.1667 164.5,49.5C 164.5,49.1667 164.5,48.8333 164.5,48.5C 165.477,45.7131 165.81,42.7131 165.5,39.5 Z"/></g>
<g><path style="opacity:0.008" fill="#08090a" d="M 10.5,41.5 C 10.3284,42.4916 10.6618,43.1583 11.5,43.5C 11.5,44.1667 11.1667,44.5 10.5,44.5C 9.83333,44.5 9.5,44.8333 9.5,45.5C 9.5,45.8333 9.5,46.1667 9.5,46.5C 8.16667,46.8333 8.16667,47.1667 9.5,47.5C 9.5,48.1667 9.16667,48.5 8.5,48.5C 8.16667,48.5 7.83333,48.5 7.5,48.5C 7.55164,45.6538 8.55164,43.3204 10.5,41.5 Z"/></g>
<g><path style="opacity:0.012" fill="#070707" d="M 79.5,41.5 C 80.1667,41.8333 80.8333,42.1667 81.5,42.5C 81.5,43.1667 81.8333,43.5 82.5,43.5C 82.5,44.1667 82.1667,44.5 81.5,44.5C 81.1667,44.5 80.8333,44.5 80.5,44.5C 79.8333,44.5 79.5,44.1667 79.5,43.5C 78.8333,43.5 78.5,43.1667 78.5,42.5C 79.1667,42.5 79.5,42.1667 79.5,41.5 Z"/></g>
<g><path style="opacity:0.009" fill="#101010" d="M 198.5,45.5 C 197.833,45.5 197.5,45.1667 197.5,44.5C 196.833,44.5 196.5,44.1667 196.5,43.5C 197.222,43.0825 197.722,42.4158 198,41.5C 199.298,42.9456 199.465,44.2789 198.5,45.5 Z"/></g>
<g><path style="opacity:0.401" fill="#1a2b3b" d="M 164.5,36.5 C 165.404,37.209 165.737,38.209 165.5,39.5C 164.523,42.2869 164.19,45.2869 164.5,48.5C 164.5,48.8333 164.5,49.1667 164.5,49.5C 164.167,49.5 163.833,49.5 163.5,49.5C 163.5,45.8333 163.5,42.1667 163.5,38.5C 164.338,38.1583 164.672,37.4916 164.5,36.5 Z"/></g>
<g><path style="opacity:0.014" fill="#0d0e10" d="M 180.5,43.5 C 180.833,43.5 181.167,43.5 181.5,43.5C 182.5,46.1667 183.5,46.1667 184.5,43.5C 184.833,43.5 185.167,43.5 185.5,43.5C 185.782,44.7777 186.449,45.7777 187.5,46.5C 184.5,46.5 181.5,46.5 178.5,46.5C 178.328,45.5084 178.662,44.8417 179.5,44.5C 180.206,45.5573 180.539,45.2239 180.5,43.5 Z"/></g>
<g><path style="opacity:0.008" fill="#0e0e0e" d="M 51.5,46.5 C 51.1667,46.5 50.8333,46.5 50.5,46.5C 49.8333,46.5 49.5,46.1667 49.5,45.5C 50.9245,43.9689 51.5912,44.3023 51.5,46.5 Z"/></g>
<g><path style="opacity:0.592" fill="#134169" d="M 93.5,62.5 C 93.1667,62.5 92.8333,62.5 92.5,62.5C 92.8205,57.3054 92.4872,52.3054 91.5,47.5C 91.5,47.1667 91.5,46.8333 91.5,46.5C 92.8333,46.1667 92.8333,45.8333 91.5,45.5C 91.3691,44.6236 91.7025,43.9569 92.5,43.5C 93.4963,49.7985 93.8297,56.1318 93.5,62.5 Z"/></g>
<g><path style="opacity:0.007" fill="#000000" d="M 202.5,52.5 C 202.167,52.5 201.833,52.5 201.5,52.5C 200.833,52.5 200.5,52.1667 200.5,51.5C 200.5,51.1667 200.5,50.8333 200.5,50.5C 199.833,50.5 199.5,50.1667 199.5,49.5C 199.167,48.8333 198.833,48.1667 198.5,47.5C 199.397,46.4019 200.23,46.4019 201,47.5C 201.608,49.1545 202.108,50.8211 202.5,52.5 Z"/></g>
<g><path style="opacity:0.997" fill="#1c6eb3" d="M 49.5,45.5 C 49.5,46.1667 49.8333,46.5 50.5,46.5C 50.8333,47.8333 51.1667,47.8333 51.5,46.5C 52.3382,46.8417 52.6716,47.5084 52.5,48.5C 51.6618,48.8417 51.3284,49.5084 51.5,50.5C 51.5,51.1667 51.8333,51.5 52.5,51.5C 52.5,52.1667 52.8333,52.5 53.5,52.5C 53.5,53.1667 53.5,53.8333 53.5,54.5C 53.5,55.1667 53.8333,55.5 54.5,55.5C 54.5,55.8333 54.5,56.1667 54.5,56.5C 54.5,57.1667 54.8333,57.5 55.5,57.5C 55.3284,58.4916 55.6618,59.1583 56.5,59.5C 56.5,60.1667 56.5,60.8333 56.5,61.5C 52.7016,62.4834 48.7016,62.8168 44.5,62.5C 44.5,61.8333 44.1667,61.5 43.5,61.5C 43.5,60.8333 43.5,60.1667 43.5,59.5C 43.5,58.8333 43.1667,58.5 42.5,58.5C 42.5,58.1667 42.5,57.8333 42.5,57.5C 42.5,57.1667 42.5,56.8333 42.5,56.5C 42.719,55.325 42.3857,54.325 41.5,53.5C 38.558,53.6377 35.558,53.6377 32.5,53.5C 33.7701,52.7124 34.7701,51.7124 35.5,50.5C 38.6106,48.4409 41.9439,46.6076 45.5,45C 47.0657,44.235 48.3991,44.4017 49.5,45.5 Z"/></g>
<g><path style="opacity:0.017" fill="#030303" d="M 90.5,47.5 C 90.8333,47.5 91.1667,47.5 91.5,47.5C 91.666,52.8437 91.4994,58.1771 91,63.5C 90.8238,59.3123 90.3238,55.3123 89.5,51.5C 89.5,50.8333 89.1667,50.5 88.5,50.5C 88.5,49.8333 88.8333,49.5 89.5,49.5C 90.1667,49.5 90.5,49.1667 90.5,48.5C 90.5,48.1667 90.5,47.8333 90.5,47.5 Z"/></g>
<g><path style="opacity:0.009" fill="#000000" d="M 7.5,48.5 C 7.5,49.1667 7.83333,49.5 8.5,49.5C 8.16667,50.1667 7.83333,50.8333 7.5,51.5C 6.83333,51.5 6.5,51.8333 6.5,52.5C 5.52909,51.0379 5.86242,49.7046 7.5,48.5 Z"/></g>
<g><path style="opacity:0.008" fill="#090b0e" d="M 52.5,48.5 C 53.6737,49.5137 54.3404,50.847 54.5,52.5C 54.1667,52.5 53.8333,52.5 53.5,52.5C 52.8333,52.5 52.5,52.1667 52.5,51.5C 51.8333,51.5 51.5,51.1667 51.5,50.5C 52.3382,50.1583 52.6716,49.4916 52.5,48.5 Z"/></g>
<g><path style="opacity:0.133" fill="#0d1820" d="M 70.5,46.5 C 69.1667,46.8333 69.1667,47.1667 70.5,47.5C 71.1667,47.5 71.5,47.8333 71.5,48.5C 69.5583,53.0557 68.8917,58.0557 69.5,63.5C 65.6286,63.815 61.9619,63.4816 58.5,62.5C 61.8333,62.5 65.1667,62.5 68.5,62.5C 68.3338,56.4908 68.5005,50.4908 69,44.5C 69.7172,45.0442 70.2172,45.7109 70.5,46.5 Z"/></g>
<g><path style="opacity:0.009" fill="#030304" d="M 71.5,49.5 C 72.1667,49.5 72.5,49.8333 72.5,50.5C 73.1667,50.5 73.5,50.8333 73.5,51.5C 72.1667,51.8333 72.1667,52.1667 73.5,52.5C 74.1667,52.5 74.5,52.8333 74.5,53.5C 73.8333,53.5 73.5,53.8333 73.5,54.5C 72.8826,54.3893 72.3826,54.056 72,53.5C 71.6667,56.5 71.3333,59.5 71,62.5C 70.1864,57.9796 70.353,53.6463 71.5,49.5 Z"/></g>
<g><path style="opacity:0.008" fill="#000000" d="M 88.5,51.5 C 88.8333,51.5 89.1667,51.5 89.5,51.5C 89.6716,52.4916 89.3382,53.1583 88.5,53.5C 88.5,52.8333 88.5,52.1667 88.5,51.5 Z"/></g>
<g><path style="opacity:0.01" fill="#111315" d="M 162.5,52.5 C 162.5,51.8333 162.833,51.5 163.5,51.5C 163.833,51.5 164.167,51.5 164.5,51.5C 164.328,52.4916 164.662,53.1583 165.5,53.5C 165.5,54.1667 165.167,54.5 164.5,54.5C 163.833,54.5 163.5,54.8333 163.5,55.5C 162.167,56.1667 162.167,56.8333 163.5,57.5C 163.5,58.1667 163.167,58.5 162.5,58.5C 161.167,58.8333 161.167,59.1667 162.5,59.5C 162.672,60.4916 162.338,61.1583 161.5,61.5C 161.5,60.8333 161.167,60.5 160.5,60.5C 160.672,59.5084 160.338,58.8417 159.5,58.5C 159.5,58.1667 159.5,57.8333 159.5,57.5C 160.167,57.5 160.5,57.1667 160.5,56.5C 161.833,56.1667 161.833,55.8333 160.5,55.5C 160.833,54.5 161.5,53.8333 162.5,53.5C 163.833,53.1667 163.833,52.8333 162.5,52.5 Z"/></g>
<g><path style="opacity:0.008" fill="#090909" d="M 202.5,52.5 C 203.931,53.7804 204.598,55.4471 204.5,57.5C 204.167,57.5 203.833,57.5 203.5,57.5C 203.5,57.1667 203.5,56.8333 203.5,56.5C 202.833,56.5 202.5,56.1667 202.5,55.5C 201.833,55.5 201.5,55.1667 201.5,54.5C 202.338,54.1583 202.672,53.4916 202.5,52.5 Z"/></g>
<g><path style="opacity:0.997" fill="#386ea2" d="M 35.5,50.5 C 34.7701,51.7124 33.7701,52.7124 32.5,53.5C 35.558,53.6377 38.558,53.6377 41.5,53.5C 42.3857,54.325 42.719,55.325 42.5,56.5C 42.1667,56.5 41.8333,56.5 41.5,56.5C 40.1667,55.1667 38.8333,55.1667 37.5,56.5C 36.209,56.2627 35.209,56.596 34.5,57.5C 33.209,57.2627 32.209,57.596 31.5,58.5C 28.8478,58.4095 26.5145,59.0762 24.5,60.5C 23.209,60.2627 22.209,60.596 21.5,61.5C 20.209,61.2627 19.209,61.596 18.5,62.5C 17.209,62.2627 16.209,62.596 15.5,63.5C 13.901,63.2322 12.5676,63.5655 11.5,64.5C 10.209,64.2627 9.20895,64.596 8.5,65.5C 7.20895,65.2627 6.20895,65.596 5.5,66.5C 3.83333,66.5 2.16667,66.5 0.5,66.5C 11.2984,60.6223 22.9651,55.2889 35.5,50.5 Z"/></g>
<g><path style="opacity:0.012" fill="#000000" d="M 87.5,53.5 C 87.8333,53.5 88.1667,53.5 88.5,53.5C 88.3147,54.1701 87.9813,54.1701 87.5,53.5 Z"/></g>
<g><path style="opacity:0.009" fill="#080808" d="M 73.5,54.5 C 73.8333,54.5 74.1667,54.5 74.5,54.5C 75.1667,54.5 75.5,54.8333 75.5,55.5C 76.1667,55.5 76.5,55.8333 76.5,56.5C 75.8333,56.5 75.5,56.8333 75.5,57.5C 74.0937,57.0269 73.427,56.0269 73.5,54.5 Z"/></g>
<g><path style="opacity:0.01" fill="#000000" d="M 85.5,55.5 C 85.5,54.8333 85.8333,54.5 86.5,54.5C 86.8333,54.5 87.1667,54.5 87.5,54.5C 87.6716,55.4916 87.3382,56.1583 86.5,56.5C 86.5,55.8333 86.1667,55.5 85.5,55.5 Z"/></g>
<g><path style="opacity:0.008" fill="#030305" d="M 37.5,57.5 C 37.5,57.1667 37.5,56.8333 37.5,56.5C 38.8333,56.5 40.1667,56.5 41.5,56.5C 41.8333,56.5 42.1667,56.5 42.5,56.5C 42.5,56.8333 42.5,57.1667 42.5,57.5C 41.1667,57.8333 41.1667,58.1667 42.5,58.5C 43.1667,58.5 43.5,58.8333 43.5,59.5C 42.1667,60.1667 42.1667,60.8333 43.5,61.5C 43.631,62.2389 43.4643,62.9056 43,63.5C 41.8855,62.0001 41.0521,60.3334 40.5,58.5C 39.675,57.6143 38.675,57.281 37.5,57.5 Z"/></g>
<g><path style="opacity:0.006" fill="#0b0e0e" d="M 85.5,56.5 C 85.8333,56.5 86.1667,56.5 86.5,56.5C 86.573,58.0269 85.9063,59.0269 84.5,59.5C 84.5,58.8333 84.1667,58.5 83.5,58.5C 83.5,57.8333 83.8333,57.5 84.5,57.5C 85.1667,57.5 85.5,57.1667 85.5,56.5 Z"/></g>
<g><path style="opacity:0.008" fill="#0a0b0c" d="M 174.5,56.5 C 180.167,56.5 185.833,56.5 191.5,56.5C 192.167,56.5 192.5,56.8333 192.5,57.5C 191.167,57.8333 191.167,58.1667 192.5,58.5C 192.833,59.1667 193.167,59.8333 193.5,60.5C 192.778,60.9175 192.278,61.5842 192,62.5C 190.991,60.9751 190.491,59.3084 190.5,57.5C 185.821,57.3342 181.155,57.5008 176.5,58C 175.934,58.9947 175.267,59.828 174.5,60.5C 174.672,59.5084 174.338,58.8417 173.5,58.5C 173.328,57.5084 173.662,56.8417 174.5,56.5 Z"/></g>
<g><path style="opacity:0.271" fill="#232d36" d="M 5.5,56.5 C 5.67158,57.4916 5.33825,58.1583 4.5,58.5C 3.58761,57.2618 3.42094,55.9285 4,54.5C 4.27842,55.4158 4.77842,56.0825 5.5,56.5 Z"/></g>
<g><path style="opacity:0.009" fill="#000000" d="M 34.5,58.5 C 34.5,58.1667 34.5,57.8333 34.5,57.5C 35.5,57.5 36.5,57.5 37.5,57.5C 36.791,58.404 35.791,58.7373 34.5,58.5 Z"/></g>
<g><path style="opacity:0.007" fill="#0f0e14" d="M 75.5,57.5 C 75.8333,57.5 76.1667,57.5 76.5,57.5C 77.1667,57.5 77.5,57.8333 77.5,58.5C 78.1667,58.5 78.5,58.8333 78.5,59.5C 76.8212,59.7148 75.8212,59.0481 75.5,57.5 Z"/></g>
<g><path style="opacity:0.009" fill="#000000" d="M 31.5,59.5 C 31.5,59.1667 31.5,58.8333 31.5,58.5C 32.5,58.5 33.5,58.5 34.5,58.5C 33.791,59.404 32.791,59.7373 31.5,59.5 Z"/></g>
<g><path style="opacity:0.016" fill="#000000" d="M 158.5,58.5 C 158.833,58.5 159.167,58.5 159.5,58.5C 159.315,59.1701 158.981,59.1701 158.5,58.5 Z"/></g>
<g><path style="opacity:0.009" fill="#0f1111" d="M 3.5,60.5 C 3.5,61.1667 3.5,61.8333 3.5,62.5C 3.56544,62.9382 3.39877,63.2716 3,63.5C 2.72158,62.5842 2.22158,61.9175 1.5,61.5C 1.40879,59.3023 2.07546,58.9689 3.5,60.5 Z"/></g>
<g><path style="opacity:0.009" fill="#000000" d="M 31.5,59.5 C 30.7494,60.5735 29.7494,60.7401 28.5,60C 29.448,59.5172 30.448,59.3505 31.5,59.5 Z"/></g>
<g><path style="opacity:0.004" fill="#000000" d="M 83.5,59.5 C 83.8333,59.5 84.1667,59.5 84.5,59.5C 84.3147,60.1701 83.9813,60.1701 83.5,59.5 Z"/></g>
<g><path style="opacity:0.012" fill="#000000" d="M 157.5,59.5 C 157.833,59.5 158.167,59.5 158.5,59.5C 158.315,60.1701 157.981,60.1701 157.5,59.5 Z"/></g>
<g><path style="opacity:0.008" fill="#000000" d="M 205.5,59.5 C 206.338,59.8417 206.672,60.5084 206.5,61.5C 206.167,61.5 205.833,61.5 205.5,61.5C 205.5,60.8333 205.5,60.1667 205.5,59.5 Z"/></g>
<g><path style="opacity:0.008" fill="#000000" d="M 24.5,60.5 C 25.552,60.3505 26.552,60.5172 27.5,61C 25.6547,62.128 23.6547,62.628 21.5,62.5C 21.5,62.1667 21.5,61.8333 21.5,61.5C 22.791,61.7373 23.791,61.404 24.5,60.5 Z"/></g>
<g><path style="opacity:0.01" fill="#000000" d="M 83.5,60.5 C 81.7116,61.6225 79.7116,61.7891 77.5,61C 79.4727,60.5045 81.4727,60.3379 83.5,60.5 Z"/></g>
<g><path style="opacity:0.008" fill="#000000" d="M 156.5,60.5 C 156.833,60.5 157.167,60.5 157.5,60.5C 157.315,61.1701 156.981,61.1701 156.5,60.5 Z"/></g>
<g><path style="opacity:0.004" fill="#000000" d="M 1.5,61.5 C 0.833333,62.1667 0.833333,62.1667 1.5,61.5 Z"/></g>
<g><path style="opacity:0.008" fill="#000000" d="M 154.5,62.5 C 154.5,62.1667 154.5,61.8333 154.5,61.5C 155.167,61.5 155.833,61.5 156.5,61.5C 156.158,62.3382 155.492,62.6716 154.5,62.5 Z"/></g>
<g><path style="opacity:0.004" fill="#000000" d="M 206.5,61.5 C 206.833,61.5 207.167,61.5 207.5,61.5C 207.5,62.1667 207.5,62.8333 207.5,63.5C 206.662,63.1583 206.328,62.4916 206.5,61.5 Z"/></g>
<g><path style="opacity:0.009" fill="#000000" d="M 18.5,63.5 C 18.5,63.1667 18.5,62.8333 18.5,62.5C 19.5,62.5 20.5,62.5 21.5,62.5C 20.791,63.404 19.791,63.7373 18.5,63.5 Z"/></g>
<g><path style="opacity:0.185" fill="#152833" d="M 56.5,61.5 C 57.0431,61.56 57.3764,61.8933 57.5,62.5C 53.0162,63.8111 48.6829,63.8111 44.5,62.5C 48.7016,62.8168 52.7016,62.4834 56.5,61.5 Z"/></g>
<g><path style="opacity:0.01" fill="#000000" d="M 154.5,62.5 C 154.103,63.525 153.437,63.6917 152.5,63C 153.094,62.5357 153.761,62.369 154.5,62.5 Z"/></g>
<g><path style="opacity:0.184" fill="#14232c" d="M 160.5,60.5 C 161.167,60.5 161.5,60.8333 161.5,61.5C 164.625,62.4794 167.958,62.8128 171.5,62.5C 168.024,63.6433 164.358,63.8099 160.5,63C 159.226,62.0228 159.226,61.1894 160.5,60.5 Z"/></g>
<g><path style="opacity:0.184" fill="#1a2c37" d="M 204.5,61.5 C 204.833,61.5 205.167,61.5 205.5,61.5C 204.129,62.7868 202.295,63.4535 200,63.5C 197.967,63.4944 196.134,63.1611 194.5,62.5C 198.042,62.8128 201.375,62.4794 204.5,61.5 Z"/></g>
<g><path style="opacity:0.009" fill="#000000" d="M 15.5,64.5 C 15.5,64.1667 15.5,63.8333 15.5,63.5C 16.5,63.5 17.5,63.5 18.5,63.5C 17.791,64.404 16.791,64.7373 15.5,64.5 Z"/></g>
<g><path style="opacity:0.01" fill="#000000" d="M 147.5,64.5 C 147.5,64.1667 147.5,63.8333 147.5,63.5C 152.833,63.8333 152.833,64.1667 147.5,64.5 Z"/></g>
<g><path style="opacity:0.008" fill="#000000" d="M 11.5,65.5 C 11.5,65.1667 11.5,64.8333 11.5,64.5C 12.8333,64.5 14.1667,64.5 15.5,64.5C 14.4324,65.4345 13.099,65.7678 11.5,65.5 Z"/></g>
<g><path style="opacity:0.011" fill="#000000" d="M 44.5,65.5 C 48.6463,64.353 52.9796,64.1864 57.5,65C 53.1794,65.499 48.8461,65.6657 44.5,65.5 Z"/></g>
<g><path style="opacity:0.011" fill="#000000" d="M 58.5,65.5 C 61.6399,64.3592 64.9733,64.1925 68.5,65C 65.1832,65.4983 61.8499,65.665 58.5,65.5 Z"/></g>
<g><path style="opacity:0.011" fill="#000000" d="M 92.5,65.5 C 95.6399,64.3592 98.9733,64.1925 102.5,65C 99.1832,65.4983 95.8499,65.665 92.5,65.5 Z"/></g>
<g><path style="opacity:0.01" fill="#000000" d="M 108.5,65.5 C 111.976,64.3567 115.642,64.1901 119.5,65C 115.848,65.4986 112.182,65.6653 108.5,65.5 Z"/></g>
<g><path style="opacity:0.011" fill="#000000" d="M 147.5,64.5 C 140.345,65.6552 133.012,65.8218 125.5,65C 132.826,64.5003 140.159,64.3337 147.5,64.5 Z"/></g>
<g><path style="opacity:0.011" fill="#000000" d="M 161.5,65.5 C 164.64,64.3592 167.973,64.1925 171.5,65C 168.183,65.4983 164.85,65.665 161.5,65.5 Z"/></g>
<g><path style="opacity:0.011" fill="#000000" d="M 194.5,65.5 C 197.976,64.3567 201.642,64.1901 205.5,65C 201.848,65.4986 198.182,65.6653 194.5,65.5 Z"/></g>
<g><path style="opacity:0.009" fill="#000000" d="M 8.5,66.5 C 8.5,66.1667 8.5,65.8333 8.5,65.5C 9.5,65.5 10.5,65.5 11.5,65.5C 11.5,65.8333 11.5,66.1667 11.5,66.5C 10.5,66.5 9.5,66.5 8.5,66.5 Z"/></g>
</svg>
